<?xml version="1.0" encoding="utf-8"?>
<!-- Generator: Adobe Illustrator 17.1.0, SVG Export Plug-In . SVG Version: 6.00 Build 0)  -->
<!DOCTYPE svg PUBLIC "-//W3C//DTD SVG 1.1//EN" "http://www.w3.org/Graphics/SVG/1.1/DTD/svg11.dtd">
<svg version="1.1" xmlns="http://www.w3.org/2000/svg" xmlns:xlink="http://www.w3.org/1999/xlink" x="0px" y="0px"
	 viewBox="0 0 500 635" style="enable-background:new 0 0 500 635;" width="500" height="635" xml:space="preserve">
<style type="text/css">
	.st0{fill:#F3D9BD;stroke:#000;}
	.st1{fill:#947860;stroke:#000;}
	.st2{fill:#879886;stroke:#1D1D1B;}
	.st3{fill:#BEC0BD;stroke:#000;}
	.st4{fill:#D9D9D9;stroke:#000;stroke-linejoin:round;}
	.st5{fill:#D9D9D9;stroke:#000;}
	.st6{fill:#FF706B;stroke:#000;}
	.st7{fill:#B7CCAA;stroke:#000;}
	.st8{fill:none;stroke:#000;}
	.st9{fill:#F3D9BD;stroke:#1D1D1B;}
	.st10{fill:#EDD48A;stroke:#1D1D1B;}
	.st11{fill:#DEE3F3;stroke:#0D0802;}
	.st12{fill:none;stroke:#1D1D1B;stroke-width:3;}
	.st13{fill:none;stroke:#FF706B;stroke-width:2;}
	.st14{fill:#D2E3C8;stroke:#0D0802;}
	.st15{fill:#A29199;stroke:#1D1D1B;}
	.st16{fill:#BEC0BD;stroke:#0D0802;}
	.st17{fill:#E4E6E2;stroke:#000;}
	.st18{fill:#D6BBAC;stroke:#000;}
	.st19{fill:#908562;stroke:#1D1D1B;}
	.st20{fill:#6B869B;stroke:#1D1D1B;}
	.st21{fill:#FFFEB9;stroke:#000;}
	.st22{fill:#96BAD0;stroke:#000;stroke-linejoin:round;}
	.st23{fill:#B1B1B1;stroke:#1D1D1B;}
	.st24{fill:none;stroke:#000;stroke-width:3;stroke-linecap:round;}
	.st25{fill:none;stroke:#000;stroke-linecap:round;stroke-linejoin:round;}
	.st26{fill:none;stroke:#000;stroke-linecap:round;}
	.st27{font-family:'Liberation Sans','Arial';}
	.st28{font-size:50px;}
</style>
<g id="diagram">
	<g id="lower">
		<rect x="0.5" y="430.3" class="st0" width="499" height="204.3"/>
		<path class="st1" d="M291,480.7c0-4.9-4-8.8-8.8-8.8h-40.6h-31.9c-4.9,0-8.8,4-8.8,8.8v72.9l4.6,5l-4.6,25.2c0,4.9,4,8.8,8.8,8.8
			h72.5c4.9,0,8.8-4,8.8-8.8l-5-25.4l5-7.4V480.7z"/>
		<path class="st1" d="M306.7,533.8c0,4.9-4,8.8-8.8,8.8h-7c-4.9,0-8.8-4-8.8-8.8v-60.7c0-4.9,4-8.8,8.8-8.8h7c4.9,0,8.8,4,8.8,8.8
			V533.8z"/>
		<path class="st2" d="M188,447.6c6.7,6.7,19.9,56.4,19.9,65c10.7-9.1,67.1,1.6,67.1,1.6s11.8-56.9,9.1-66.6c-2.7-9.7-25.8,0-25.8,0
			s-13.4,38.1-17.2,38.1s-21.5-40.3-21.5-40.3l-33.3,2.1"/>
		<path class="st1" d="M202.5,533.8c0,4.9-4,8.8-8.8,8.8h-7c-4.9,0-8.8-4-8.8-8.8v-60.7c0-4.9,4-8.8,8.8-8.8h7c4.9,0,8.8,4,8.8,8.8
			V533.8z"/>
		<rect x="171.5" y="430.8" class="st3" width="140" height="28"/>
		<path class="st0" d="M287.7,487.1c0,4.7,0,24.1,0,24.1l13.5-1.7v-22.9L287.7,487.1z"/>
		<path class="st0" d="M300.2,481.8c0-2.3,0.2-4.8,1-8.8c0.9-4,4.7-9,0-12.5c-4.7-3.5-9.1-8.9-13-2.3c-2.6,4.6,0.4,6.5-0.2,8.1
			c-1.6-1.6-5.7,1.8-4.3,3.2c1.4,1.4,5.5,5.4,5.5,10.9C292.8,480.4,300.2,481.8,300.2,481.8z"/>
		<path class="st4" d="M286.4,494.9c0-2,3.9-4.9,8.4-4.9s8,3.4,8,4.9v-10.7c0-4.5-4.1-7.4-8.1-7.4c-4.7,0-8.4,2.9-8.4,7.4V494.9z"/>
		<path class="st5" d="M308.9,449.2c0,3.8-3.2,6.9-7.3,6.9h-34.4c-4,0-7.3-3.1-7.3-6.9V446c0-3.8,3.2-6.9,7.3-6.9h34.4
			c4,0,7.3,3.1,7.3,6.9V449.2z"/>
		<circle class="st6" cx="267.9" cy="447.6" r="3.7"/>
		<circle class="st6" cx="279" cy="447.6" r="3.7"/>
		<circle class="st6" cx="290.2" cy="447.6" r="3.7"/>
		<circle class="st6" cx="301.3" cy="447.6" r="3.7"/>
		<path class="st0" d="M182.3,488.1c0,4.7,0,24.1,0,24.1l13.5-1.7v-22.9L182.3,488.1z"/>
		<path class="st7" d="M304.7,527.5c1.8-2.8,0.3-10.6,0.3-21.6c-6.4-8-20.4-4.3-21.3-2.6c-1,1.7,1,25.4-1.7,29
			c-1.7-34-36-31.4-39.6-31.4c-3.6,0-32.4,0.4-39,21.8c-2.6-3.6-1.7-15.3-2.6-17c-1-1.7-15-5.4-21.4,2.6c0,11,0.1,15.1,1.9,17.9
			c-4.1,10.9,9.3,56.6,63.1,56.6c0.1,2,0.1,4,0.1,5.8C311.5,584.2,308.8,538.4,304.7,527.5z"/>
		<path class="st0" d="M184.3,481.8c0-2.3-0.2-4.8-1-8.8c-0.9-4-4.7-9,0-12.5c4.7-3.5,9.1-8.9,13-2.3c2.6,4.6-0.4,6.5,0.2,8.1
			c1.6-1.6,5.7,1.8,4.3,3.2c-1.4,1.4-5.5,5.4-5.5,10.9C191.8,480.4,184.3,481.8,184.3,481.8z"/>
		<path class="st4" d="M181,495.9c0-2,3.9-4.9,8.4-4.9c4.5,0,8,3.4,8,4.9v-10.7c0-4.5-4.1-7.4-8.1-7.4c-4.7,0-8.4,2.9-8.4,7.4V495.9
			z"/>
		<path class="st8" d="M203.4,522.7c-0.9,5.5,8.6,15,8.6,19.9"/>
		<path class="st8" d="M282.8,530.1c-0.8,3.7-6.5,9.2-6.5,12.5"/>
		<path class="st9" d="M254.5,551c-6.1-0.7-5.5-7.3-9.5-7.3s-3.6,5.8-9.5,7.3c-6,1.5-9.5,14.5-9.5,16.5c7-0.3,19,0,19,0s12-0.3,19,0
			C267.3,565,263.8,552,254.5,551z"/>
		<path class="st10" d="M252.6,559.1c-0.3-2.3-1-4.9-8.3-4.3c-7.3,0.7-16.6,5.7-19.5,16.9s0.7,22.2,5.7,27.3c5.1,5.1,12.7,6,16.6,6
			s11.4,0.1,18.1-6.6c7.8-7.8,7.6-22,5-27.3C267.6,565.9,268.5,560.6,252.6,559.1z"/>
	</g>
	<g id="upper">
		<rect x="0.5" y="0.5" class="st11" width="499" height="418.8"/>
		<g>
			<path class="st12" d="M451.5,321c4,0,28-6.7,28,29c0,21.5-26,24-26,74c0,0,4.6,38.5,2,47.9c-3.8,14.1-24.2,16.6-38.5,23
				c-7.3,3.3-15.5,11.6-21,13.6s-47.8,12.9-88.7-18.8"/>
			<path class="st13" d="M451.5,321c4,0,28-6.7,28,29c0,21.5-26,24-26,74c0,0,4.6,38.5,2,47.9c-3.8,14.1-24.2,16.6-38.5,23
				c-7.3,3.3-15.5,11.6-21,13.6s-47.8,12.9-88.7-18.8"/>
		</g>
		<rect x="0.5" y="419.3" class="st14" width="499" height="11.4"/>
		<path class="st1" d="M395.9,343.6c4.9,0,8.8-4,8.8-8.8v-41.4v-31.1c0-4.9-4-8.8-8.8-8.8H323l-5,4.6l-25.2-4.6
			c-4.9,0-8.8,4-8.8,8.8v72.5c0,4.9,4,8.8,8.8,8.8l25.4-5l7.4,5H395.9z"/>
		<path class="st15" d="M429.1,240.6c-6.7,6.7-60.9,20.8-69.4,20.8c9.1,10.7,2.9,66.2,2.9,66.2s56.9,11.8,66.6,9.1
			c9.7-2.7,0-25.8,0-25.8s-38.1-13.4-38.1-17.2s40.3-21.5,40.3-21.5l-2.1-33.3"/>
		<path class="st1" d="M342.9,255.1c-4.9,0-8.8-4-8.8-8.8v-7c0-4.9,4-8.8,8.8-8.8h60.7c4.9,0,8.8,4,8.8,8.8v7c0,4.9-4,8.8-8.8,8.8
			H342.9z"/>
		<path class="st1" d="M342.9,359.3c-4.9,0-8.8-4-8.8-8.8v-7c0-4.9,4-8.8,8.8-8.8h60.7c4.9,0,8.8,4,8.8,8.8v7c0,4.9-4,8.8-8.8,8.8
			H342.9z"/>
		<rect x="407.5" y="201.8" class="st16" width="84.7" height="183.3"/>
		<path class="st17" d="M462,333.5c0,4-3.2,7.3-7.3,7.3h-28c-4,0-7.3-3.2-7.3-7.3v-91.3c0-4,3.2-7.3,7.3-7.3h28c4,0,7.3,3.2,7.3,7.3
			V333.5z"/>
		<g>
			<path class="st0" d="M418.1,247c-4.6,2.6-6.5-0.4-8.1,0.2c1.6,1.6-1.8,5.7-3.1,4.3c-1.4-1.4-6.2-3.2-11.7-3.2h-22.9l-1.7-13.5
				c0,0,19.4,0,24.1,0c2.3,0,4.8,0,8.8-0.8c4-0.9,9-4.7,12.5,0C419.3,238.7,424.7,243.2,418.1,247z"/>
		</g>
		<g>
			<path class="st0" d="M418.1,340.5c-4.6-2.6-6.5,0.4-8.1-0.2c1.6-1.6-1.8-5.7-3.1-4.3c-1.4,1.4-6.2,3.2-11.7,3.2h-22.9l-1.7,13.5
				c0,0,19.4,0,24.1,0c2.3,0,4.8,0,8.8,0.8c4,0.9,9,4.7,12.5,0C419.3,348.8,424.7,344.4,418.1,340.5z"/>
		</g>
		<path class="st18" d="M349.2,357.3c2.8,1.8,27.3,0.3,38.2,0.3c8-6.4,4.3-20.4,2.6-21.3c-1.7-1-42.1,1-45.6-1.7
			c34-1.7,31.4-36,31.4-39.6c0-3.6-0.4-32.4-21.8-39c3.6-2.6,31.6-3.6,33.3-4.5c1.7-1,5.4-15-2.6-21.4c-11,0-31.5,2-34.2,3.8
			c-10.9-4.1-56.6,9.3-56.6,63.1c-2,0.1-4,0.1-5.8,0.1C292.4,364.1,338.3,361.4,349.2,357.3z"/>
		<path class="st9" d="M325.7,307.1c0.7-6.1,7.3-5.5,7.3-9.5s-5.8-3.6-7.3-9.5c-1.5-6-14.5-9.5-16.5-9.5c0.3,7,0,19,0,19
			s0.3,12,0,19C311.6,319.9,324.6,316.4,325.7,307.1z"/>
		<path class="st19" d="M317.6,305.2c2.3-0.3,4.9-1,4.3-8.3s-5.7-16.6-16.9-19.5s-22.2,0.7-27.3,5.7s-6,12.7-6,16.6
			c0,3.9-0.1,11.4,6.6,18.1c7.8,7.8,22,7.6,27.3,5C310.8,320.3,316.1,321.1,317.6,305.2z"/>
		<path class="st1" d="M62.3,153.2c0,4.9,4,8.8,8.8,8.8h41.4h31.2c4.9,0,8.8-4,8.8-8.8V80.3l-4.6-5l4.6-25.2c0-4.9-4-8.8-8.8-8.8
			H71.1c-4.9,0-8.8,4-8.8,8.8l5,25.4l-5,7.4V153.2z"/>
		<path class="st20" d="M165.2,186.3c-6.7-6.7-20.8-60.9-20.8-69.4c-10.7,9.1-66.2,2.9-66.2,2.9s-11.8,56.9-9.1,66.6
			c2.7,9.7,25.8,0,25.8,0s13.4-38.1,17.2-38.1s21.5,40.3,21.5,40.3l33.3-2.1"/>
		<path class="st1" d="M150.7,100.1c0-4.9,4-8.8,8.8-8.8h7c4.9,0,8.8,4,8.8,8.8v60.7c0,4.9-4,8.8-8.8,8.8h-7c-4.9,0-8.8-4-8.8-8.8
			V100.1z"/>
		<path class="st1" d="M46.6,100.1c0-4.9,4-8.8,8.8-8.8h7c4.9,0,8.8,4,8.8,8.8v60.7c0,4.9-4,8.8-8.8,8.8h-7c-4.9,0-8.8-4-8.8-8.8
			V100.1z"/>
		<rect x="22.2" y="158.5" class="st3" width="183.3" height="87.4"/>
		<path class="st0" d="M157.8,174.3c-2.6-4.6,0.4-6.5-0.2-8.1c-1.6,1.6-5.7-1.8-4.3-3.1c1.4-1.4,3.2-6.2,3.2-11.7v-22.9l13.5-1.7
			c0,0,0,19.4,0,24.1c0,2.3,0,4.8,0.8,8.8c0.9,4,4.7,9,0,12.5C166.1,175.6,161.7,181,157.8,174.3z"/>
		
			<rect x="66.1" y="160.8" transform="matrix(0.8685 -0.4958 0.4958 0.8685 -77.1596 61.4965)" class="st21" width="22.3" height="30.7"/>
		<path class="st0" d="M67.3,174.3c2.6-4.6-0.4-6.5,0.2-8.1c1.6,1.6,5.7-1.8,4.3-3.1c-1.4-1.4-3.2-6.2-3.2-11.7v-22.9l-13.5-1.7
			c0,0,0,19.4,0,24.1c0,2.3,0,4.8-0.8,8.8c-0.9,4-4.7,9,0,12.5C59,175.6,63.5,181,67.3,174.3z"/>
		<path class="st22" d="M48.6,106.4c-1.8,2.8-0.3,25.8-0.3,36.8c6.4,8,20.4,4.3,21.3,2.6c1-1.7-1-40.6,1.7-44.2
			c1.7,34,36,31.4,39.6,31.4c3.6,0,32.4-0.4,39-21.8c2.6,3.6,1.7,30.5,2.6,32.2c1,1.7,15,5.4,21.4-2.6c0-11-0.1-30.3-1.9-33.1
			c4.1-10.9-9.3-56.6-63.1-56.6c-0.1-2-0.1-4-0.1-5.8C41.8,49.7,44.5,95.5,48.6,106.4z"/>
		<path class="st9" d="M98.7,82.9c6.1,0.7,5.5,7.3,9.5,7.3s3.6-5.8,9.5-7.3c6-1.5,9.5-14.5,9.5-16.5c-7,0.3-19,0-19,0s-12,0.3-19,0
			C85.9,68.9,89.4,81.9,98.7,82.9z"/>
		<path class="st23" d="M100.7,74.8c0.3,2.3,1,4.9,8.3,4.2s16.6-5.7,19.5-16.9c2.9-11.1-0.7-22.2-5.7-27.3s-12.7-6-16.6-6
			c-3.9,0-11.4-0.1-18.1,6.6c-7.8,7.8-7.6,22-5,27.3S84.7,73.3,100.7,74.8z"/>
		<line class="st24" x1="57.7" y1="160.6" x2="74.9" y2="172.4"/>
		<path class="st17" d="M166.8,232.8c0,4-3.2,7.3-7.3,7.3H67.2c-4,0-7.2-3.2-7.2-7.3v-29.6c0-4,3.2-7.3,7.2-7.3h92.3
			c4,0,7.3,3.2,7.3,7.3V232.8z"/>
		<circle class="st8" cx="117.8" cy="218" r="13.8"/>
		<polyline class="st25" points="113.4,211.3 117.8,218 128.3,216.3 		"/>
		<polyline class="st25" points="79.3,220.5 85.9,218 85.9,229 		"/>
		<circle class="st6" cx="153.1" cy="224.3" r="3.7"/>
		<circle class="st6" cx="153.1" cy="212.6" r="3.7"/>
		<circle class="st6" cx="142.6" cy="224.3" r="3.7"/>
		<circle class="st6" cx="142.6" cy="212.6" r="3.7"/>
		<circle class="st8" cx="85.9" cy="218" r="13.8"/>
		<circle class="st6" cx="430.1" cy="249.2" r="3.7"/>
		<circle class="st6" cx="430.1" cy="260.3" r="3.7"/>
		<circle class="st6" cx="430.1" cy="271.3" r="3.7"/>
		<circle class="st6" cx="430.1" cy="282.3" r="3.7"/>
		<circle class="st6" cx="430.1" cy="293.3" r="3.7"/>
		<circle class="st6" cx="430.1" cy="304.4" r="3.7"/>
		<circle class="st6" cx="430.1" cy="315.4" r="3.7"/>
		<circle class="st6" cx="430.1" cy="326.4" r="3.7"/>
		<path class="st26" d="M355.1,256.4c-5.5-0.9-15,8.6-19.9,8.6"/>
		<path class="st8" d="M346,335.2c-3.7-0.8-7.5-5.9-10.9-5.9"/>
		<path class="st26" d="M149.9,111.4c0.9-5.5-8-14.9-8-19.7"/>
		<path class="st26" d="M71.2,101.7C72,98,77.6,95,77.6,91.7"/>
	</g>
</g>
<g id="text">
	<text transform="matrix(1 0 0 1 203.6822 116.8669)" class="st27 st28">E</text>
	<text transform="matrix(1 0 0 1 340.1975 204.1975)" class="st27 st28">T</text>
	<text transform="matrix(1 0 0 1 114.4093 538.353)" class="st27 st28">L</text>
</g>
</svg>
